<svg xmlns="http://www.w3.org/2000/svg" viewBox="0 0 42 58">
  <rect x="-8" y="0" width="48" height="48" fill="none" rx="4" ry="4" />
  <path fill="#fdfdfd" transform="translate(5, 5)" d="M6.663 30.054c0.489-2.543 0.905-5.22 1.494-7.897 0.29-1.401-0.063-1.999-1.63-1.892s-3.313 0.053-4.979 0c-1.666-0.054-1.965-0.892-1.005-2.088 4.726-5.836 9.506-11.6 14.268-17.347 0.534-0.651 1.15-1.115 2.028-0.625s0.697 1.098 0.552 1.829c-0.525 2.677-0.96 5.354-1.539 7.978-0.299 1.356 0.091 1.838 1.503 1.785 1.417-0.071 2.837-0.071 4.255 0 0.806 0 1.865-0.419 2.281 0.678s-0.462 1.562-0.905 2.213c-1.811 2.231-3.645 4.459-5.504 6.684-2.722 3.248-5.423 6.484-8.102 9.709-0.525 0.633-1.114 1.142-2.010 0.821s-0.706-1.080-0.706-1.847z"></path>
</svg>
